<?xml version="1.0" standalone="no"?>
<!DOCTYPE svg PUBLIC "-//W3C//DTD SVG 20010904//EN"
 "http://www.w3.org/TR/2001/REC-SVG-20010904/DTD/svg10.dtd">
<svg version="1.0" xmlns="http://www.w3.org/2000/svg"
 width="512.000000pt" height="512.000000pt" viewBox="0 0 512.000000 512.000000"
 preserveAspectRatio="xMidYMid meet">
<metadata>
Created by potrace 1.11, written by Peter Selinger 2001-2013
</metadata>
<g transform="translate(0.000000,512.000000) scale(0.100000,-0.100000)"
fill="#000000" stroke="none">
<path d="M1700 5111 c-46 -15 -89 -41 -99 -59 -16 -31 -26 -146 -35 -424 -2
-64 -7 -121 -9 -125 -3 -5 -57 -7 -119 -5 -137 5 -145 0 -127 -73 7 -27 21
-52 33 -60 20 -13 143 -33 184 -30 18 1 19 -8 20 -144 1 -157 9 -331 17 -371
3 -14 8 -41 11 -60 12 -73 59 -190 96 -243 11 -16 19 -29 17 -31 -2 -1 -39
-17 -83 -34 -192 -77 -292 -158 -310 -252 -6 -33 -11 -37 -81 -63 -41 -15 -89
-40 -106 -54 -30 -26 -31 -28 -25 -92 4 -36 8 -77 11 -91 2 -14 6 -47 10 -75
3 -27 10 -81 16 -120 5 -38 12 -86 14 -105 5 -40 16 -118 20 -140 2 -8 6 -40
10 -70 4 -30 9 -64 11 -75 2 -10 6 -37 9 -60 3 -22 8 -51 10 -65 2 -14 7 -45
10 -70 10 -73 15 -103 22 -113 6 -10 116 -3 135 9 16 10 0 214 -38 474 -2 19
-14 98 -25 175 -11 77 -22 151 -24 165 -24 141 -24 172 -2 176 30 4 35 -18 52
-211 7 -80 16 -181 20 -215 2 -19 7 -71 10 -115 4 -44 8 -91 10 -105 1 -14 6
-56 9 -95 7 -66 17 -148 31 -240 22 -141 99 -340 159 -413 l26 -29 4 -574 c2
-316 5 -586 5 -600 1 -35 28 -42 91 -23 89 26 82 -34 77 675 -3 477 -7 632
-16 643 -12 14 -46 28 -103 40 -34 8 -46 44 -53 156 -5 87 -13 173 -20 225 -2
17 -6 55 -10 85 -3 30 -10 93 -15 140 -6 47 -13 108 -15 135 -3 28 -8 70 -11
95 -3 25 -7 59 -9 75 -2 17 -6 66 -10 110 -4 44 -9 89 -11 100 -7 34 -7 200 0
226 46 161 149 244 318 256 89 6 166 -6 223 -35 74 -37 143 -141 154 -232 7
-62 7 -280 -1 -370 -4 -41 -7 -83 -8 -92 0 -26 -8 -23 -85 27 -76 49 -93 47
-98 -11 -2 -26 4 -32 48 -54 28 -14 64 -30 81 -36 l31 -11 -13 -83 c-7 -45
-15 -85 -18 -87 -6 -7 -66 29 -66 39 0 4 -6 8 -12 8 -7 1 -29 14 -48 30 -19
17 -40 30 -46 30 -17 0 -23 -57 -7 -79 10 -15 91 -79 167 -133 13 -9 6 -142
-9 -156 -6 -6 -49 20 -111 69 -59 45 -62 47 -68 26 -15 -55 -7 -76 37 -103
141 -88 126 -72 127 -141 0 -35 -3 -63 -6 -63 -3 0 -48 23 -100 51 -52 28 -94
47 -95 42 -4 -30 5 -71 19 -87 9 -10 47 -36 85 -58 78 -47 82 -51 78 -97 -3
-44 -15 -67 -64 -118 l-40 -42 -1 -585 -1 -585 33 -34 34 -35 -31 -58 -31 -58
23 -24 c29 -31 136 -91 195 -108 78 -24 239 -50 427 -69 261 -26 673 -27 813
-1 127 23 259 68 364 123 95 50 188 126 192 157 1 11 -9 44 -24 75 -80 165
-174 500 -205 726 -3 22 -8 56 -11 76 -10 71 -15 156 -18 354 -2 110 -7 232
-11 270 -10 108 -43 249 -77 328 -17 40 -30 79 -31 87 0 8 12 69 27 135 15 66
28 127 29 137 1 12 10 18 27 19 96 2 171 36 252 113 132 126 132 173 -2 201
-41 9 -82 18 -90 20 -108 23 -151 57 -175 139 -25 84 -22 150 12 271 70 250
99 417 102 587 3 158 -25 242 -106 322 -47 46 -144 101 -200 112 -26 5 -28 9
-25 42 5 50 -29 99 -90 130 -41 21 -53 23 -86 15 -36 -9 -38 -9 -60 26 -26 41
-67 63 -116 63 -46 0 -86 -23 -137 -80 -37 -41 -51 -50 -88 -55 -24 -3 -66
-20 -94 -37 -27 -17 -63 -34 -78 -37 -15 -3 -37 -14 -48 -24 -24 -23 -61 -91
-61 -114 0 -20 -3 -19 -44 8 -19 13 -67 34 -108 47 -77 25 -88 32 -82 59 2 9
13 66 24 126 30 154 30 155 41 205 6 25 13 56 15 69 3 12 12 53 20 90 26 109
27 145 9 180 -9 18 -28 36 -43 42 -31 12 -277 54 -372 64 -36 4 -78 8 -95 10
-94 10 -243 13 -265 6z m310 -136 c121 -8 228 -18 302 -30 37 -7 50 -26 43
-64 -2 -10 -6 -42 -10 -72 -4 -30 -10 -58 -14 -62 -4 -4 -25 13 -45 38 -21 25
-49 53 -63 62 -23 15 -26 15 -49 -9 -14 -14 -22 -30 -19 -39 4 -8 38 -38 76
-67 67 -52 69 -54 63 -90 -3 -20 -8 -41 -11 -45 -2 -4 -31 17 -64 48 -43 40
-68 55 -88 55 -34 0 -59 -24 -38 -37 19 -11 118 -131 146 -176 13 -21 23 -53
23 -71 0 -43 -11 -96 -20 -96 -4 0 -23 22 -42 48 -19 26 -37 49 -40 52 -3 3
-18 23 -35 45 -54 73 -108 125 -130 125 -12 0 -30 -6 -41 -14 -18 -14 -17 -17
31 -68 28 -29 52 -55 55 -58 32 -32 80 -96 80 -107 0 -31 -98 0 -209 67 -46
28 -126 51 -190 56 -18 1 -36 7 -40 13 -7 11 -6 175 3 326 7 103 8 111 21 158
l7 28 107 -6 c58 -3 144 -7 191 -10z m1146 -581 c-12 -63 24 -80 103 -48 29
11 45 13 59 5 35 -19 32 -45 -10 -87 -22 -21 -47 -51 -56 -66 -16 -28 -18 -28
-122 -29 -58 -1 -122 -3 -142 -5 -33 -3 -40 1 -67 38 -35 47 -38 73 -15 106
l15 23 29 -31 c20 -21 35 -29 52 -26 12 3 31 5 42 5 16 1 17 7 12 47 -8 70 18
102 83 103 21 1 23 -2 17 -35z m-1276 -145 c214 -44 231 -48 281 -65 52 -16
56 -25 54 -99 -5 -132 -31 -278 -61 -338 -37 -73 -110 -176 -141 -197 -37 -25
-100 -40 -152 -35 -96 9 -164 131 -187 335 -2 25 -7 56 -10 70 -8 42 -15 336
-8 354 8 20 14 19 224 -25z m963 -75 c50 -59 46 -73 -39 -133 -75 -53 -76 -53
-95 -34 -44 43 -30 146 27 208 24 26 25 27 53 8 16 -10 40 -32 54 -49z m717
-31 c50 -58 125 -208 141 -282 10 -49 8 -139 -6 -201 -3 -14 -8 -38 -11 -55
-14 -79 -77 -300 -116 -403 l-20 -53 -21 23 c-12 13 -37 43 -55 66 l-34 42 16
47 c32 99 50 218 49 328 -1 130 -29 242 -93 370 -55 110 -53 129 15 153 64 22
90 16 135 -35z m-1092 -54 l82 -24 0 -38 c0 -46 25 -74 98 -111 48 -25 50 -27
57 -78 8 -59 45 -193 69 -250 9 -20 37 -65 63 -100 73 -97 106 -148 101 -153
-3 -3 -16 -8 -29 -10 -56 -11 -167 -76 -227 -134 -51 -50 -64 -58 -68 -44 -30
92 -45 112 -82 108 -15 -2 -63 -6 -108 -9 l-81 -6 -39 57 c-50 72 -75 98 -135
135 -43 26 -47 31 -36 49 6 10 15 19 19 19 11 0 81 110 101 160 16 42 29 89
41 150 41 224 64 313 79 307 7 -2 49 -15 95 -28z m708 -46 c4 -16 24 -51 45
-78 51 -68 59 -92 44 -135 -7 -19 -15 -64 -18 -100 -4 -36 -11 -81 -17 -101
-12 -43 -91 -126 -137 -146 -43 -17 -82 -2 -140 56 -62 62 -145 247 -159 356
-6 39 -4 44 27 67 87 66 196 106 286 107 60 1 63 0 69 -26z m185 -415 c7 -159
0 -220 -34 -271 l-16 -25 -46 21 c-25 11 -45 25 -45 29 0 5 16 30 35 58 19 27
46 85 60 129 26 80 44 103 46 59z m-125 -433 c124 -61 208 -204 241 -410 13
-78 10 -314 -5 -368 -18 -67 -85 -221 -117 -268 -36 -51 -28 -72 25 -66 24 3
53 -2 78 -13 58 -26 74 -69 77 -204 2 -117 -6 -230 -17 -242 -4 -3 -33 17 -65
46 -77 69 -97 78 -123 55 -11 -10 -22 -26 -26 -37 -6 -21 -7 -21 96 -108 36
-30 77 -66 92 -79 25 -22 46 -76 35 -88 -3 -3 -19 4 -34 15 -16 11 -36 22 -45
24 -23 4 -78 -33 -78 -52 0 -9 24 -30 53 -48 29 -17 67 -44 85 -59 29 -26 32
-33 33 -91 1 -34 -1 -65 -4 -68 -6 -6 -97 52 -109 70 -10 14 -62 -14 -66 -35
-2 -10 39 -50 103 -104 103 -86 106 -90 124 -154 28 -94 30 -131 9 -131 -7 0
-42 25 -78 56 -104 89 -107 91 -130 64 -11 -13 -20 -31 -20 -40 0 -15 59 -72
164 -161 16 -13 59 -53 95 -89 56 -55 73 -80 109 -165 38 -87 42 -102 31 -122
-7 -13 -17 -22 -23 -20 -6 2 -31 28 -55 58 -105 129 -176 198 -264 252 -27 17
-28 17 -52 -7 -41 -41 -33 -66 33 -108 31 -20 97 -73 146 -118 50 -44 93 -80
98 -80 4 0 8 -6 8 -12 0 -15 -71 -58 -95 -58 -10 0 -54 38 -100 85 -93 94
-119 109 -164 94 -40 -14 -49 -40 -19 -59 45 -30 139 -112 145 -127 8 -20 -10
-30 -76 -44 -57 -12 -280 -15 -366 -6 -27 4 -79 9 -115 12 -36 4 -119 13 -185
22 -66 8 -131 17 -145 18 -189 24 -320 58 -320 84 0 4 42 96 94 202 193 398
208 457 221 849 18 558 22 593 89 699 30 46 43 50 76 21 42 -37 115 -39 166
-5 23 15 24 17 9 51 -8 20 -30 57 -49 83 -94 129 -144 291 -144 466 1 199 44
322 149 419 140 130 276 164 405 101z m-812 -100 c0 -22 -3 -53 -6 -70 -7 -42
7 -64 57 -86 25 -11 42 -25 40 -32 -10 -27 -16 -99 -20 -238 -6 -172 0 -200
74 -329 28 -50 51 -93 51 -97 0 -5 -21 -21 -48 -38 -61 -39 -130 -102 -148
-136 -10 -20 -15 -86 -19 -241 -8 -297 -17 -450 -30 -498 -2 -8 -7 -40 -10
-70 -10 -90 -55 -289 -80 -357 -34 -90 -141 -280 -152 -270 -1 2 -4 199 -5
438 -1 314 1 440 10 455 6 12 24 27 40 33 32 13 46 35 61 96 15 58 39 219 46
305 4 41 8 86 10 100 2 14 6 61 10 105 3 44 7 100 10 125 2 25 7 81 11 125 3
44 8 98 10 120 9 75 12 420 6 480 -12 108 -6 122 58 121 23 -1 25 -5 24 -41z
m1379 -361 c75 -6 90 -25 55 -71 -11 -14 -101 -49 -144 -56 l-30 -5 4 67 c4
88 7 95 32 81 12 -6 49 -13 83 -16z"/>
</g>
</svg>
